<?xml version="1.0" encoding="UTF-8"?><svg id="_イヤー_1" xmlns="http://www.w3.org/2000/svg" viewBox="0 0 342 348"><defs><style>.cls-1{fill:#ffe86d;}.cls-2{fill:#ffba73;}.cls-3{fill:#ffbad8;}.cls-4{fill:#ffa789;}.cls-5{opacity:.5;}</style></defs><g class="cls-5"><path class="cls-3" d="M152.17,342.9c-13.48,0-26.1-3.07-38.91-6.5-13.07-3.5-24.3-9.65-35.6-16.19-1.4-.81-2.81-1.61-4.21-2.41-9.69-5.53-19.72-11.25-28.19-19.72-8.91-8.92-15-19.49-20.9-29.72l-1.47-2.55c-6.2-10.71-12.42-22.45-15.97-35.73l-.57-2.13C3.23,216.33,0,204.32,0,191.16c0-16.12,1.36-28.71,4.27-39.62,2.96-11.07,8.61-20.49,14.09-29.6,1.2-2,2.4-4,3.55-5.99,6.6-11.4,15.5-20.29,24.1-28.89l1.03-1.03c1.8-1.8,3.55-3.62,5.4-5.56,7.05-7.36,14.35-14.97,23.96-20.53l1.05-.61c10.37-6,22.13-12.81,35.04-16.26,11.39-3.04,24.74-4.59,39.67-4.59,13.75,0,27.44,1.71,39.57,4.96,11.97,3.2,24.32,8.45,36.7,15.62,11.3,6.54,20.3,15.55,29,24.26l1.28,1.28c8.41,8.41,16.09,18.71,23.48,31.47,6.84,11.83,10.75,24.54,13.95,36.51,3.2,11.97,4.76,24.59,4.76,38.57v2.86c.02,11.86,.04,24.12-3.17,36.14l-.71,2.66c-3.1,11.69-6.32,23.78-12.63,34.69-6.75,11.66-16.19,21.51-25.27,30.6l-1.77,1.78c-8.59,8.61-17.47,17.52-28.57,23.94-8.75,5.06-18.28,7.03-27.5,8.92-3.69,.76-7.18,1.48-10.54,2.38-2.28,.61-4.56,1.26-6.97,1.96-9.91,2.85-20.16,5.8-31.61,5.8Zm0-284.41c-13.19,0-24.8,1.32-34.51,3.91-10.35,2.77-20.44,8.6-30.19,14.25l-1.05,.61c-7.15,4.14-13.17,10.41-19.53,17.06-1.84,1.92-3.75,3.91-5.7,5.86l-1.03,1.03c-8.05,8.04-15.65,15.63-20.93,24.76-1.21,2.08-2.46,4.17-3.72,6.27-4.98,8.29-9.68,16.12-11.91,24.47-2.45,9.18-3.6,20.13-3.6,34.46,0,10.52,2.88,21.23,5.66,31.59l.58,2.16c2.78,10.41,7.59,19.88,13.96,30.88l1.49,2.58c5.48,9.52,10.66,18.51,17.71,25.56,6.57,6.57,15.02,11.39,23.96,16.49,1.44,.82,2.88,1.64,4.32,2.47,10.48,6.06,20.02,11.31,30.75,14.18,11.92,3.18,22.68,5.82,33.75,5.82,8.62,0,17.1-2.44,26.08-5.02,2.39-.69,4.87-1.4,7.33-2.06,3.92-1.05,7.86-1.86,11.67-2.64,8.01-1.65,15.57-3.21,21.51-6.64,8.81-5.1,16.75-13.06,24.43-20.75l1.79-1.8c8.49-8.49,16.57-16.9,22.11-26.48,4.98-8.6,7.71-18.9,10.61-29.81l.72-2.69c2.53-9.47,2.51-19.9,2.49-30.95v-2.89c0-12.21-1.34-23.14-4.08-33.41-2.84-10.64-6.26-21.84-11.94-31.65-6.5-11.24-13.14-20.19-20.31-27.35l-1.29-1.29c-7.79-7.8-15.84-15.87-24.87-21.09-10.86-6.28-21.58-10.86-31.85-13.61-10.48-2.8-22.38-4.28-34.41-4.28Z"/></g><g class="cls-5"><path class="cls-4" d="M181.84,348.03c-13.04,0-24.98-3.26-36.53-6.41-1.47-.4-2.94-.8-4.4-1.19-2.65-.71-5.31-1.36-8.13-2.05-10.64-2.61-21.65-5.3-31.59-11.05-9.58-5.54-16.83-13.38-23.84-20.97-2.38-2.57-4.62-5-6.92-7.29-9.45-9.45-17.58-20.16-24.86-32.73l-1.73-2.99c-6.18-10.62-12.57-21.6-16-34.43-3.66-13.71-4.17-27.93-4.17-41.26s3.14-24.16,6.18-35.19c.47-1.72,.95-3.44,1.41-5.16,1.01-3.77,1.75-7.71,2.53-11.89,1.77-9.44,3.6-19.21,8.79-28.18,7.02-12.13,16.62-22.15,26.66-32.19,8.24-8.24,19.38-18.67,32.44-26.23,12.5-7.23,26.71-11.35,39.05-14.65,1.8-.48,3.62-.98,5.45-1.49,10.78-2.98,23-6.36,35.67-6.36,14.08,0,28.52,1.87,41.77,5.41,10.28,2.75,18.59,8.43,26.62,13.93,3.42,2.34,6.65,4.55,9.88,6.42,3.23,1.87,6.69,3.58,10.35,5.39,8.77,4.33,17.84,8.81,25.29,16.26,8.31,8.31,13.91,18.38,19.33,28.12,1.25,2.25,2.5,4.49,3.77,6.69,6.14,10.61,10.94,22.8,15.09,38.36,.44,1.65,.9,3.31,1.35,4.97,3.1,11.28,6.31,22.95,6.31,35.78,0,15.61-1.62,29.58-4.81,41.52-3.05,11.4-8.89,21.05-14.55,30.38-1.43,2.36-2.78,4.58-4.08,6.83-6.64,11.48-14.89,22.08-25.22,32.41-1.45,1.45-2.89,2.92-4.34,4.4-8.01,8.17-16.3,16.63-26.93,22.78-12.4,7.17-26.02,11.14-38.9,14.58-1.21,.32-2.42,.65-3.63,.98-11.81,3.2-24.02,6.5-37.33,6.5Zm0-301.72c-9.96,0-20.32,2.87-30.34,5.64-1.89,.52-3.76,1.04-5.62,1.54-11.1,2.97-23.81,6.64-34.19,12.64-11.05,6.39-20.94,15.68-28.31,23.06-9.06,9.06-17.68,18.03-23.49,28.07-3.48,6.01-4.92,13.7-6.45,21.85-.82,4.36-1.66,8.87-2.87,13.37-.47,1.77-.96,3.53-1.45,5.3-2.81,10.2-5.46,19.82-5.46,29.88,0,11.96,.42,24.62,3.49,36.09,2.74,10.25,8.19,19.62,13.97,29.54l1.76,3.03c6.39,11.04,13.48,20.4,21.69,28.6,2.57,2.57,5.06,5.26,7.46,7.86,6.28,6.79,12.21,13.21,19.17,17.23,7.46,4.32,16.63,6.56,26.33,8.94,2.79,.68,5.68,1.39,8.54,2.15,1.49,.4,2.99,.81,4.5,1.22,10.28,2.8,20.91,5.7,31.27,5.7s21.55-2.95,32.1-5.81c1.24-.34,2.47-.67,3.7-1,11.59-3.1,23.76-6.62,34.05-12.57,8.27-4.79,15.26-11.92,22.67-19.47,1.49-1.52,2.98-3.04,4.48-4.54,9.08-9.08,16.29-18.33,22.05-28.28,1.4-2.42,2.87-4.84,4.28-7.18,5.15-8.5,10.02-16.53,12.33-25.18,2.74-10.25,4.13-22.48,4.13-36.35,0-10.13-2.72-20.02-5.59-30.48-.47-1.71-.94-3.41-1.39-5.11-3.69-13.82-7.85-24.46-13.08-33.51-1.34-2.32-2.66-4.69-3.93-6.98-4.97-8.93-9.66-17.37-15.99-23.7-5.12-5.12-12.35-8.69-20.01-12.47-3.79-1.87-7.71-3.81-11.51-6.01-3.88-2.25-7.58-4.78-11.16-7.23-6.95-4.76-13.52-9.25-20.5-11.12-11.59-3.1-24.25-4.73-36.61-4.73Z"/></g><g class="cls-5"><path class="cls-2" d="M135.44,311.1c-6.08,0-12.23-.46-18.38-2.1-13.04-3.49-26.79-7.48-38.87-14.47-10.18-5.89-20.46-14.17-32.33-26.04-8.43-8.42-14.13-18.56-19.65-28.36-1.09-1.93-2.17-3.86-3.28-5.77-6.73-11.64-11.95-24.3-15.52-37.62-3.1-11.58-4.48-24.02-4.48-40.33,0-12.54,1.83-25.25,5.77-39.98,3.53-13.19,7.26-26.02,14.19-37.99,1.09-1.88,2.16-3.78,3.23-5.68,5.54-9.83,11.27-20,19.71-28.45,9.69-9.69,21.04-18.42,32.8-25.22,12.83-7.42,25.66-12.88,38.16-16.22C128.24-.18,140.08-.07,151.54,.05c4.46,.05,8.92,.04,13.38-.02,11.27-.14,22.92-.29,34.18,2.72,10.51,2.81,19.19,8.41,27.59,13.83,3.05,1.97,5.93,3.82,8.81,5.49,1.24,.72,2.49,1.43,3.74,2.15,10.31,5.91,20.96,12.01,29.92,20.96,7.71,7.71,12.55,16.86,17.24,25.71,1.59,3.01,3.09,5.85,4.7,8.62,5.79,10,12.24,22.21,16.16,36.88,.61,2.3,1.27,4.6,1.93,6.91,2.96,10.38,6.02,21.12,6.02,33.09,0,15.02-1.64,28.75-4.86,40.83-3.76,14.08-10.69,26.7-16.89,37.41-1.15,1.99-2.28,4.01-3.42,6.03-5.49,9.79-11.17,19.92-19.53,28.28-9.88,9.88-21.99,17.46-33.6,24.18-11.74,6.79-24.38,10.47-38.5,14.24-11.78,3.15-23.7,3.07-35.24,3-1.73-.01-3.47-.02-5.21-.02-3.57,0-7.14,.17-10.91,.36-3.82,.19-7.69,.38-11.58,.38ZM144.91,20c-8.2,0-15.95,.32-22.94,2.19-10.8,2.89-22,7.67-33.31,14.2-10.28,5.95-20.2,13.58-28.68,22.06-6.51,6.51-11.33,15.06-16.43,24.12-1.11,1.97-2.22,3.94-3.34,5.88-5.71,9.86-8.89,20.84-12.18,33.14-3.47,13-5.09,24.06-5.09,34.82,0,14.49,1.17,25.34,3.8,35.16,3.11,11.63,7.65,22.66,13.51,32.77,1.14,1.97,2.27,3.97,3.39,5.98,5.08,9.02,9.87,17.55,16.36,24.03,10.61,10.61,19.57,17.87,28.2,22.87,9.97,5.77,22.27,9.32,34.02,12.46,7.08,1.89,15.21,1.5,23.82,1.07,3.85-.19,7.83-.38,11.89-.38,1.79,0,3.57,.01,5.33,.02,10.68,.07,20.77,.13,29.95-2.33,12.72-3.4,24.04-6.67,33.65-12.23,10.44-6.04,21.23-12.76,29.48-21.01,6.41-6.41,11.18-14.92,16.23-23.92,1.18-2.1,2.36-4.2,3.55-6.27,5.56-9.61,11.75-20.84,14.88-32.56,2.78-10.39,4.19-22.39,4.19-35.67,0-9.18-2.55-18.13-5.26-27.61-.69-2.42-1.38-4.83-2.02-7.23-3.32-12.41-9.01-23.15-14.15-32.03-1.8-3.1-3.46-6.24-5.07-9.28-4.18-7.89-8.12-15.35-13.7-20.93-7.07-7.07-16.13-12.26-25.72-17.75-1.27-.73-2.54-1.46-3.81-2.19-3.31-1.91-6.53-3.99-9.64-6-7.42-4.79-14.43-9.31-21.9-11.31-8.59-2.3-18.39-2.18-28.76-2.05-4.61,.06-9.22,.06-13.83,.02-2.17-.02-4.32-.04-6.43-.04Z"/></g><g class="cls-5"><path class="cls-1" d="M176.42,334.27c-13.5,0-26.65-2.6-36.61-4.86-8.98-2.04-16.4-6.39-23.58-10.6-3.28-1.92-6.38-3.74-9.46-5.23-3.26-1.57-6.84-2.89-10.62-4.29-7.67-2.83-15.61-5.77-22.59-11.34-9.83-7.85-18.01-17.47-25.38-26.7-7.36-9.21-13.89-19.7-19.42-31.16-5.16-10.69-10.42-22.15-13.21-34.41-2.01-8.83-1.5-17.61-1-26.11,.22-3.69,.42-7.17,.42-10.6,0-3.6-.28-7.3-.57-11.22-.63-8.31-1.27-16.91,.7-25.59,2.04-8.99,6.63-16.83,10.67-23.75,1.93-3.3,3.74-6.41,5.23-9.48,5.41-11.22,12.58-20.56,20.07-29.94,7.61-9.53,15.91-17.84,25.38-25.4,8.81-7.03,18.54-14.3,30.04-19.85,3.05-1.47,6.13-3.26,9.39-5.15,7.28-4.22,14.8-8.58,23.82-10.63,11.24-2.56,22.92-2.54,34.22-2.53h2.52c10.36,0,23.88,.37,36.57,3.26,12.79,2.91,24.53,6.91,34.88,11.91,9.98,4.82,20.4,11.53,30.95,19.96,10.41,8.31,19.25,16.99,26.27,25.78,5.56,6.96,8.39,14.84,11.13,22.46,1.38,3.85,2.69,7.48,4.28,10.77l.83,1.73c4.76,9.84,9.68,20.02,12.35,31.78,.76,3.34,1.89,6.83,3.08,10.52,2.44,7.57,5.21,16.14,5.21,25.37s-2.96,17.44-5.58,24.78c-1.37,3.86-2.67,7.51-3.45,10.95-.75,3.3-1.31,6.7-1.9,10.3-1.37,8.33-2.79,16.95-6.77,25.19-4.86,10.07-11.37,20.16-19.9,30.84-5.68,7.12-12.74,11.94-19.56,16.6-3.12,2.13-6.06,4.14-8.76,6.3-2.85,2.28-5.61,5.12-8.54,8.14-5.35,5.52-11.42,11.78-19.47,15.66-8.03,3.87-16.45,5-24.6,6.09-3.99,.53-7.75,1.04-11.29,1.84-3.39,.77-6.96,1.97-10.73,3.25-7.44,2.51-15.87,5.35-25.04,5.35Zm-5.14-308.84c-9.7,0-18.86,.14-27.17,2.03-6.05,1.38-11.96,4.8-18.22,8.43-3.44,1.99-7,4.06-10.73,5.86-9.72,4.69-18.36,11.17-26.26,17.47-8.29,6.62-15.56,13.9-22.23,22.25-7,8.77-13.17,16.79-17.68,26.15-1.83,3.79-3.93,7.39-5.97,10.88-3.64,6.23-7.07,12.11-8.43,18.1-1.31,5.75-.8,12.5-.26,19.66,.31,4.12,.63,8.37,.63,12.72,0,4.01-.23,7.96-.45,11.77-.43,7.42-.84,14.44,.54,20.51,2.32,10.22,7.06,20.5,11.72,30.15,4.88,10.12,10.61,19.33,17.04,27.37,6.65,8.32,13.94,16.94,22.23,23.56,4.46,3.56,10.58,5.82,17.05,8.21,4.06,1.5,8.26,3.05,12.38,5.04,3.81,1.84,7.41,3.95,10.89,5.99,6.13,3.6,11.93,6.99,17.89,8.35,8.94,2.03,20.67,4.36,32.18,4.36,5.89,0,12.08-2.09,18.64-4.3,4.08-1.38,8.3-2.8,12.69-3.8,4.42-1.01,8.82-1.59,13.07-2.16,6.89-.92,13.41-1.8,18.56-4.29,4.86-2.34,9.2-6.83,13.8-11.57,3.23-3.33,6.57-6.78,10.42-9.85,3.28-2.62,6.67-4.94,9.95-7.18,5.86-4.01,11.4-7.8,15.22-12.57,7.59-9.5,13.31-18.35,17.51-27.05,2.72-5.64,3.85-12.5,5.05-19.75,.62-3.73,1.25-7.6,2.14-11.49,1.05-4.6,2.61-8.98,4.12-13.22,2.27-6.38,4.42-12.41,4.42-18.07,0-6.08-2.06-12.46-4.25-19.22-1.28-3.95-2.59-8.03-3.55-12.24-2.17-9.54-6.39-18.27-10.85-27.51l-.84-1.74c-2.04-4.23-3.59-8.53-5.09-12.69-2.29-6.37-4.46-12.38-7.95-16.75-6.09-7.63-13.87-15.24-23.12-22.63-9.39-7.5-18.52-13.41-27.16-17.58-9-4.34-19.3-7.85-30.62-10.42-10.69-2.43-22.25-2.76-32.14-2.76h-2.55c-.87,0-1.73,0-2.59,0Z"/></g></svg>