<?xml version="1.0" encoding="UTF-8"?><svg id="_イヤー_1" xmlns="http://www.w3.org/2000/svg" viewBox="0 0 70 70"><defs><style>.cls-1{fill:#534741;}.cls-2{fill:#fff;stroke:#534741;stroke-miterlimit:10;stroke-width:2.7px;}</style></defs><g><g><path class="cls-2" d="M21.81,51.97c-1.63-1.02-3.87-1.65-6.34-1.65s-4.71,.63-6.34,1.65h-2.69v4.07c0,3.16,4.04,5.72,9.03,5.72s9.03-2.56,9.03-5.72v-4.07h-2.69Z"/><ellipse class="cls-2" cx="15.47" cy="51.97" rx="9.03" ry="5.72"/><ellipse class="cls-2" cx="15.47" cy="51.79" rx="7.35" ry="3.4"/></g><g><path class="cls-2" d="M21.81,47.24c-1.63-1.02-3.87-1.65-6.34-1.65s-4.71,.63-6.34,1.65h-2.69v4.07c0,3.16,4.04,5.72,9.03,5.72s9.03-2.56,9.03-5.72v-4.07h-2.69Z"/><path class="cls-2" d="M24.5,47.24c0,3.16-4.04,5.72-9.03,5.72s-9.03-2.56-9.03-5.72,4.04-5.72,9.03-5.72,9.03,2.56,9.03,5.72Z"/><path class="cls-2" d="M22.82,47.07c0,1.88-3.29,3.4-7.35,3.4s-7.35-1.52-7.35-3.4,3.29-3.4,7.35-3.4,7.35,1.52,7.35,3.4Z"/></g><g><path class="cls-2" d="M21.81,42.21c-1.63-1.02-3.87-1.65-6.34-1.65s-4.71,.63-6.34,1.65h-2.69v4.07c0,3.16,4.04,5.72,9.03,5.72s9.03-2.56,9.03-5.72v-4.07h-2.69Z"/><path class="cls-2" d="M24.5,42.21c0,3.16-4.04,5.72-9.03,5.72s-9.03-2.56-9.03-5.72,4.04-5.72,9.03-5.72,9.03,2.56,9.03,5.72Z"/><ellipse class="cls-2" cx="15.47" cy="42.04" rx="7.35" ry="3.4"/></g><g><path class="cls-2" d="M21.81,37.48c-1.63-1.02-3.87-1.65-6.34-1.65s-4.71,.63-6.34,1.65h-2.69v4.07c0,3.16,4.04,5.72,9.03,5.72s9.03-2.56,9.03-5.72v-4.07h-2.69Z"/><path class="cls-2" d="M24.5,37.48c0,3.16-4.04,5.72-9.03,5.72s-9.03-2.56-9.03-5.72,4.04-5.72,9.03-5.72,9.03,2.56,9.03,5.72Z"/><ellipse class="cls-2" cx="15.47" cy="37.31" rx="7.35" ry="3.4"/></g><g><path class="cls-2" d="M21.81,32.25c-1.63-1.02-3.87-1.65-6.34-1.65s-4.71,.63-6.34,1.65h-2.69v4.07c0,3.16,4.04,5.72,9.03,5.72s9.03-2.56,9.03-5.72v-4.07h-2.69Z"/><path class="cls-2" d="M24.5,32.25c0,3.16-4.04,5.72-9.03,5.72s-9.03-2.56-9.03-5.72,4.04-5.72,9.03-5.72,9.03,2.56,9.03,5.72Z"/><path class="cls-2" d="M22.82,32.08c0,1.88-3.29,3.4-7.35,3.4s-7.35-1.52-7.35-3.4,3.29-3.4,7.35-3.4,7.35,1.52,7.35,3.4Z"/></g><g><path class="cls-2" d="M21.81,27.52c-1.63-1.02-3.87-1.65-6.34-1.65s-4.71,.63-6.34,1.65h-2.69v4.07c0,3.16,4.04,5.72,9.03,5.72s9.03-2.56,9.03-5.72v-4.07h-2.69Z"/><ellipse class="cls-2" cx="15.47" cy="27.52" rx="9.03" ry="5.72"/><ellipse class="cls-2" cx="15.47" cy="27.35" rx="7.35" ry="3.4"/></g><g><path class="cls-2" d="M21.81,22.49c-1.63-1.02-3.87-1.65-6.34-1.65s-4.71,.63-6.34,1.65h-2.69v4.07c0,3.16,4.04,5.72,9.03,5.72s9.03-2.56,9.03-5.72v-4.07h-2.69Z"/><path class="cls-2" d="M24.5,22.49c0,3.16-4.04,5.72-9.03,5.72s-9.03-2.56-9.03-5.72,4.04-5.72,9.03-5.72,9.03,2.56,9.03,5.72Z"/><path class="cls-2" d="M22.82,22.32c0,1.88-3.29,3.4-7.35,3.4s-7.35-1.52-7.35-3.4,3.29-3.4,7.35-3.4,7.35,1.52,7.35,3.4Z"/></g><g><path class="cls-2" d="M21.81,17.77c-1.63-1.02-3.87-1.65-6.34-1.65s-4.71,.63-6.34,1.65h-2.69v4.07c0,3.16,4.04,5.72,9.03,5.72s9.03-2.56,9.03-5.72v-4.07h-2.69Z"/><ellipse class="cls-2" cx="15.47" cy="17.77" rx="9.03" ry="5.72"/><ellipse class="cls-2" cx="15.47" cy="17.6" rx="7.35" ry="3.4"/></g></g><g><g><path class="cls-2" d="M49.21,51.97c-1.63-1.02-3.87-1.65-6.34-1.65s-4.71,.63-6.34,1.65h-2.69v4.07c0,3.16,4.04,5.72,9.03,5.72s9.03-2.56,9.03-5.72v-4.07h-2.69Z"/><ellipse class="cls-2" cx="42.87" cy="51.97" rx="9.03" ry="5.72"/><ellipse class="cls-2" cx="42.87" cy="51.79" rx="7.35" ry="3.4"/></g><g><path class="cls-2" d="M49.21,47.24c-1.63-1.02-3.87-1.65-6.34-1.65s-4.71,.63-6.34,1.65h-2.69v4.07c0,3.16,4.04,5.72,9.03,5.72s9.03-2.56,9.03-5.72v-4.07h-2.69Z"/><path class="cls-2" d="M51.9,47.24c0,3.16-4.04,5.72-9.03,5.72s-9.03-2.56-9.03-5.72,4.04-5.72,9.03-5.72,9.03,2.56,9.03,5.72Z"/><path class="cls-2" d="M50.22,47.07c0,1.88-3.29,3.4-7.35,3.4s-7.35-1.52-7.35-3.4,3.29-3.4,7.35-3.4,7.35,1.52,7.35,3.4Z"/></g><g><path class="cls-2" d="M49.21,42.21c-1.63-1.02-3.87-1.65-6.34-1.65s-4.71,.63-6.34,1.65h-2.69v4.07c0,3.16,4.04,5.72,9.03,5.72s9.03-2.56,9.03-5.72v-4.07h-2.69Z"/><path class="cls-2" d="M51.9,42.21c0,3.16-4.04,5.72-9.03,5.72s-9.03-2.56-9.03-5.72,4.04-5.72,9.03-5.72,9.03,2.56,9.03,5.72Z"/><ellipse class="cls-2" cx="42.87" cy="42.04" rx="7.35" ry="3.4"/></g><g><path class="cls-2" d="M49.21,37.48c-1.63-1.02-3.87-1.65-6.34-1.65s-4.71,.63-6.34,1.65h-2.69v4.07c0,3.16,4.04,5.72,9.03,5.72s9.03-2.56,9.03-5.72v-4.07h-2.69Z"/><path class="cls-2" d="M51.9,37.48c0,3.16-4.04,5.72-9.03,5.72s-9.03-2.56-9.03-5.72,4.04-5.72,9.03-5.72,9.03,2.56,9.03,5.72Z"/><ellipse class="cls-2" cx="42.87" cy="37.31" rx="7.35" ry="3.4"/></g><g><path class="cls-2" d="M49.21,32.25c-1.63-1.02-3.87-1.65-6.34-1.65s-4.71,.63-6.34,1.65h-2.69v4.07c0,3.16,4.04,5.72,9.03,5.72s9.03-2.56,9.03-5.72v-4.07h-2.69Z"/><path class="cls-2" d="M51.9,32.25c0,3.16-4.04,5.72-9.03,5.72s-9.03-2.56-9.03-5.72,4.04-5.72,9.03-5.72,9.03,2.56,9.03,5.72Z"/><path class="cls-2" d="M50.22,32.08c0,1.88-3.29,3.4-7.35,3.4s-7.35-1.52-7.35-3.4,3.29-3.4,7.35-3.4,7.35,1.52,7.35,3.4Z"/></g><g><path class="cls-2" d="M49.21,27.52c-1.63-1.02-3.87-1.65-6.34-1.65s-4.71,.63-6.34,1.65h-2.69v4.07c0,3.16,4.04,5.72,9.03,5.72s9.03-2.56,9.03-5.72v-4.07h-2.69Z"/><ellipse class="cls-2" cx="42.87" cy="27.52" rx="9.03" ry="5.72"/><ellipse class="cls-2" cx="42.87" cy="27.35" rx="7.35" ry="3.4"/></g><g><path class="cls-2" d="M49.21,22.49c-1.63-1.02-3.87-1.65-6.34-1.65s-4.71,.63-6.34,1.65h-2.69v4.07c0,3.16,4.04,5.72,9.03,5.72s9.03-2.56,9.03-5.72v-4.07h-2.69Z"/><path class="cls-2" d="M51.9,22.49c0,3.16-4.04,5.72-9.03,5.72s-9.03-2.56-9.03-5.72,4.04-5.72,9.03-5.72,9.03,2.56,9.03,5.72Z"/><path class="cls-2" d="M50.22,22.32c0,1.88-3.29,3.4-7.35,3.4s-7.35-1.52-7.35-3.4,3.29-3.4,7.35-3.4,7.35,1.52,7.35,3.4Z"/></g><g><path class="cls-2" d="M49.21,17.77c-1.63-1.02-3.87-1.65-6.34-1.65s-4.71,.63-6.34,1.65h-2.69v4.07c0,3.16,4.04,5.72,9.03,5.72s9.03-2.56,9.03-5.72v-4.07h-2.69Z"/><ellipse class="cls-2" cx="42.87" cy="17.77" rx="9.03" ry="5.72"/><ellipse class="cls-2" cx="42.87" cy="17.6" rx="7.35" ry="3.4"/></g></g><g><g><path class="cls-2" d="M35.51,60.21c-1.63-1.02-3.87-1.65-6.34-1.65s-4.71,.63-6.34,1.65h-2.69v4.07c0,3.16,4.04,5.72,9.03,5.72s9.03-2.56,9.03-5.72v-4.07h-2.69Z"/><ellipse class="cls-2" cx="29.17" cy="60.21" rx="9.03" ry="5.72"/><path class="cls-2" d="M36.52,60.04c0,1.88-3.29,3.4-7.35,3.4s-7.35-1.52-7.35-3.4,3.29-3.4,7.35-3.4,7.35,1.52,7.35,3.4Z"/></g><g><path class="cls-2" d="M35.51,55.49c-1.63-1.02-3.87-1.65-6.34-1.65s-4.71,.63-6.34,1.65h-2.69v4.07c0,3.16,4.04,5.72,9.03,5.72s9.03-2.56,9.03-5.72v-4.07h-2.69Z"/><ellipse class="cls-2" cx="29.17" cy="55.49" rx="9.03" ry="5.72"/><ellipse class="cls-2" cx="29.17" cy="55.32" rx="7.35" ry="3.4"/></g><g><path class="cls-2" d="M35.51,50.45c-1.63-1.02-3.87-1.65-6.34-1.65s-4.71,.63-6.34,1.65h-2.69v4.07c0,3.16,4.04,5.72,9.03,5.72s9.03-2.56,9.03-5.72v-4.07h-2.69Z"/><ellipse class="cls-2" cx="29.17" cy="50.45" rx="9.03" ry="5.72"/><ellipse class="cls-2" cx="29.17" cy="50.28" rx="7.35" ry="3.4"/></g><g><path class="cls-2" d="M35.51,45.73c-1.63-1.02-3.87-1.65-6.34-1.65s-4.71,.63-6.34,1.65h-2.69v4.07c0,3.16,4.04,5.72,9.03,5.72s9.03-2.56,9.03-5.72v-4.07h-2.69Z"/><ellipse class="cls-2" cx="29.17" cy="45.73" rx="9.03" ry="5.72"/><ellipse class="cls-2" cx="29.17" cy="45.56" rx="7.35" ry="3.4"/></g><g><path class="cls-2" d="M35.51,40.49c-1.63-1.02-3.87-1.65-6.34-1.65s-4.71,.63-6.34,1.65h-2.69v4.07c0,3.16,4.04,5.72,9.03,5.72s9.03-2.56,9.03-5.72v-4.07h-2.69Z"/><ellipse class="cls-2" cx="29.17" cy="40.49" rx="9.03" ry="5.72"/><ellipse class="cls-2" cx="29.17" cy="40.32" rx="7.35" ry="3.4"/></g><g><path class="cls-2" d="M35.51,35.77c-1.63-1.02-3.87-1.65-6.34-1.65s-4.71,.63-6.34,1.65h-2.69v4.07c0,3.16,4.04,5.72,9.03,5.72s9.03-2.56,9.03-5.72v-4.07h-2.69Z"/><path class="cls-2" d="M38.2,35.77c0,3.16-4.04,5.72-9.03,5.72s-9.03-2.56-9.03-5.72,4.04-5.72,9.03-5.72,9.03,2.56,9.03,5.72Z"/><ellipse class="cls-2" cx="29.17" cy="35.6" rx="7.35" ry="3.4"/></g><g><path class="cls-2" d="M35.51,30.74c-1.63-1.02-3.87-1.65-6.34-1.65s-4.71,.63-6.34,1.65h-2.69v4.07c0,3.16,4.04,5.72,9.03,5.72s9.03-2.56,9.03-5.72v-4.07h-2.69Z"/><ellipse class="cls-2" cx="29.17" cy="30.74" rx="9.03" ry="5.72"/><ellipse class="cls-2" cx="29.17" cy="30.57" rx="7.35" ry="3.4"/></g><g><path class="cls-2" d="M35.51,26.01c-1.63-1.02-3.87-1.65-6.34-1.65s-4.71,.63-6.34,1.65h-2.69v4.07c0,3.16,4.04,5.72,9.03,5.72s9.03-2.56,9.03-5.72v-4.07h-2.69Z"/><path class="cls-2" d="M38.2,26.01c0,3.16-4.04,5.72-9.03,5.72s-9.03-2.56-9.03-5.72,4.04-5.72,9.03-5.72,9.03,2.56,9.03,5.72Z"/><ellipse class="cls-2" cx="29.17" cy="25.84" rx="7.35" ry="3.4"/></g></g><polygon class="cls-1" points="59.48 7.24 57.59 3.15 55.59 7.24 51.51 9.18 55.59 11.12 57.59 15.2 59.48 11.12 63.56 9.18 59.48 7.24"/><polygon class="cls-1" points="51.62 2.04 50.68 0 49.68 2.04 47.64 3.01 49.68 3.98 50.68 6.02 51.62 3.98 53.66 3.01 51.62 2.04"/></svg>